{
  "accessors": [
    {
      "bufferView": 2,
      "componentType": 5126,
      "count": 2164,
      "max": [
        -7.71518087387085,
        0.8881149888038635,
        0.4942820072174072
      ],
      "min": [
        -10.888070106506348,
        -3.3482890129089355,
        -0.4942820072174072
      ],
      "type": "VEC3"
    },
    {
      "bufferView": 2,
      "byteOffset": 25968,
      "componentType": 5126,
      "count": 2164,
      "max": [
        0.9396927356719971,
        0.9402162432670593,
        1.0
      ],
      "min": [
        -0.9395926594734192,
        -0.9396963715553284,
        -0.9999634623527527
      ],
      "type": "VEC3"
    },
    {
      "bufferView": 1,
      "componentType": 5126,
      "count": 2164,
      "max": [
        1.1961450576782227,
        1.0
      ],
      "min": [
        -0.7094359993934631,
        0.0
      ],
      "type": "VEC2"
    },
    {
      "bufferView": 0,
      "componentType": 5125,
      "count": 3708,
      "type": "SCALAR"
    },
    {
      "bufferView": 2,
      "byteOffset": 51936,
      "componentType": 5126,
      "count": 8966,
      "max": [
        -8.037444114685059,
        0.7643979787826538,
        0.9397810101509094
      ],
      "min": [
        -13.761947631835938,
        -3.510688066482544,
        -0.9397810101509094
      ],
      "type": "VEC3"
    },
    {
      "bufferView": 2,
      "byteOffset": 159528,
      "componentType": 5126,
      "count": 8966,
      "max": [
        0.994753360748291,
        0.9851973652839661,
        1.0
      ],
      "min": [
        -0.9872869849205017,
        -0.9999948740005493,
        -1.0
      ],
      "type": "VEC3"
    },
    {
      "bufferView": 1,
      "byteOffset": 17312,
      "componentType": 5126,
      "count": 8966,
      "max": [
        1.5978779792785645,
        1.6393189430236816
      ],
      "min": [
        -0.5348100066184998,
        -0.10083000361919403
      ],
      "type": "VEC2"
    },
    {
      "bufferView": 0,
      "byteOffset": 14832,
      "componentType": 5125,
      "count": 39138,
      "type": "SCALAR"
    },
    {
      "bufferView": 2,
      "byteOffset": 267120,
      "componentType": 5126,
      "count": 41044,
      "max": [
        15.127144813537598,
        3.6495120525360107,
        0.9880509972572327
      ],
      "min": [
        -14.746426582336426,
        -3.585319995880127,
        -0.9869890213012695
      ],
      "type": "VEC3"
    },
    {
      "bufferView": 2,
      "byteOffset": 759648,
      "componentType": 5126,
      "count": 41044,
      "max": [
        1.0,
        1.0,
        1.0
      ],
      "min": [
        -1.0,
        -1.0,
        -1.0
      ],
      "type": "VEC3"
    },
    {
      "bufferView": 1,
      "byteOffset": 89040,
      "componentType": 5126,
      "count": 41044,
      "max": [
        1.5978779792785645,
        1.6405600309371948
      ],
      "min": [
        -1.596058964729309,
        -0.17637899518013
      ],
      "type": "VEC2"
    },
    {
      "bufferView": 0,
      "byteOffset": 171384,
      "componentType": 5125,
      "count": 206736,
      "type": "SCALAR"
    },
    {
      "bufferView": 2,
      "byteOffset": 1252176,
      "componentType": 5126,
      "count": 5969,
      "max": [
        -7.510181903839111,
        0.5914549827575684,
        0.8448539972305298
      ],
      "min": [
        -9.386954307556152,
        -1.239791989326477,
        -0.8448539972305298
      ],
      "type": "VEC3"
    },
    {
      "bufferView": 2,
      "byteOffset": 1323804,
      "componentType": 5126,
      "count": 5969,
      "max": [
        0.9996037483215332,
        0.9995980262756348,
        1.0
      ],
      "min": [
        -0.9989893436431885,
        -0.9930164813995361,
        -1.0
      ],
      "type": "VEC3"
    },
    {
      "bufferView": 1,
      "byteOffset": 417392,
      "componentType": 5126,
      "count": 5969,
      "max": [
        1.0,
        1.0
      ],
      "min": [
        0.0,
        0.0
      ],
      "type": "VEC2"
    },
    {
      "bufferView": 0,
      "byteOffset": 998328,
      "componentType": 5125,
      "count": 33462,
      "type": "SCALAR"
    },
    {
      "bufferView": 2,
      "byteOffset": 1395432,
      "componentType": 5126,
      "count": 33,
      "max": [
        -8.037444114685059,
        -3.0117270946502686,
        0.4942820072174072
      ],
      "min": [
        -8.39399528503418,
        -3.141500949859619,
        -0.4942820072174072
      ],
      "type": "VEC3"
    },
    {
      "bufferView": 2,
      "byteOffset": 1395828,
      "componentType": 5126,
      "count": 33,
      "max": [
        0.342021107673645,
        -0.9396923780441284,
        0.0
      ],
      "min": [
        0.3420190215110779,
        -0.9396930932998657,
        0.0
      ],
      "type": "VEC3"
    },
    {
      "bufferView": 1,
      "byteOffset": 465144,
      "componentType": 5126,
      "count": 33,
      "max": [
        1.0,
        1.0
      ],
      "min": [
        0.0,
        0.0
      ],
      "type": "VEC2"
    },
    {
      "bufferView": 0,
      "byteOffset": 1132176,
      "componentType": 5125,
      "count": 84,
      "type": "SCALAR"
    }
  ],
  "asset": {
    "extras": {
      "author": "CGWorker (https://sketchfab.com/CGWorker)",
      "license": "CC-BY-4.0 (http://creativecommons.org/licenses/by/4.0/)",
      "source": "https://sketchfab.com/3d-models/adjustable-spannerwrench-e13f98a9d7364510a65042d4c42e7a9c",
      "title": "Adjustable Spanner/Wrench"
    },
    "generator": "Sketchfab-12.66.0",
    "version": "2.0"
  },
  "bufferViews": [
    {
      "buffer": 0,
      "byteLength": 1132512,
      "name": "floatBufferViews",
      "target": 34963
    },
    {
      "buffer": 0,
      "byteLength": 465408,
      "byteOffset": 1132512,
      "byteStride": 8,
      "name": "floatBufferViews",
      "target": 34962
    },
    {
      "buffer": 0,
      "byteLength": 1396224,
      "byteOffset": 1597920,
      "byteStride": 12,
      "name": "floatBufferViews",
      "target": 34962
    }
  ],
  "buffers": [
    {
      "byteLength": 2994144,
      "uri": "scene.bin"
    }
  ],
  "materials": [
    {
      "doubleSided": true,
      "name": "initialShadingGroup",
      "pbrMetallicRoughness": {
        "metallicFactor": 0.0,
        "roughnessFactor": 0.6
      }
    }
  ],
  "meshes": [
    {
      "name": "Object_0",
      "primitives": [
        {
          "attributes": {
            "NORMAL": 1,
            "POSITION": 0,
            "TEXCOORD_0": 2
          },
          "indices": 3,
          "material": 0,
          "mode": 4
        }
      ]
    },
    {
      "name": "Object_1",
      "primitives": [
        {
          "attributes": {
            "NORMAL": 5,
            "POSITION": 4,
            "TEXCOORD_0": 6
          },
          "indices": 7,
          "material": 0,
          "mode": 4
        }
      ]
    },
    {
      "name": "Object_2",
      "primitives": [
        {
          "attributes": {
            "NORMAL": 9,
            "POSITION": 8,
            "TEXCOORD_0": 10
          },
          "indices": 11,
          "material": 0,
          "mode": 4
        }
      ]
    },
    {
      "name": "Object_3",
      "primitives": [
        {
          "attributes": {
            "NORMAL": 13,
            "POSITION": 12,
            "TEXCOORD_0": 14
          },
          "indices": 15,
          "material": 0,
          "mode": 4
        }
      ]
    },
    {
      "name": "Object_4",
      "primitives": [
        {
          "attributes": {
            "NORMAL": 17,
            "POSITION": 16,
            "TEXCOORD_0": 18
          },
          "indices": 19,
          "material": 0,
          "mode": 4
        }
      ]
    }
  ],
  "nodes": [
    {
      "children": [
        1
      ],
      "matrix": [
        1.0,
        0.0,
        0.0,
        0.0,
        0.0,
        2.220446049250313e-16,
        -1.0,
        0.0,
        0.0,
        1.0,
        2.220446049250313e-16,
        0.0,
        0.0,
        0.0,
        0.0,
        1.0
      ],
      "name": "Sketchfab_model"
    },
    {
      "children": [
        2,
        3,
        4,
        5,
        6
      ],
      "name": "Adjustable_Spanner_01.obj.cleaner.materialmerger.gles"
    },
    {
      "mesh": 0,
      "name": "Object_2"
    },
    {
      "mesh": 1,
      "name": "Object_3"
    },
    {
      "mesh": 2,
      "name": "Object_4"
    },
    {
      "mesh": 3,
      "name": "Object_5"
    },
    {
      "mesh": 4,
      "name": "Object_6"
    }
  ],
  "scene": 0,
  "scenes": [
    {
      "name": "Sketchfab_Scene",
      "nodes": [
        0
      ]
    }
  ]
}
