<?xml version="1.0" encoding="UTF-8" standalone="no"?>
<!-- Created with Inkscape (http://www.inkscape.org/) -->

<svg
   width="210mm"
   height="297mm"
   viewBox="0 0 210 297"
   version="1.1"
   id="svg5"
   xml:space="preserve"
   inkscape:version="1.2.2 (732a01da63, 2022-12-09)"
   sodipodi:docname="tailwind.svg"
   xmlns:inkscape="http://www.inkscape.org/namespaces/inkscape"
   xmlns:sodipodi="http://sodipodi.sourceforge.net/DTD/sodipodi-0.dtd"
   xmlns="http://www.w3.org/2000/svg"
   xmlns:svg="http://www.w3.org/2000/svg"><sodipodi:namedview
     id="namedview7"
     pagecolor="#ffffff"
     bordercolor="#000000"
     borderopacity="0.25"
     inkscape:showpageshadow="2"
     inkscape:pageopacity="0.0"
     inkscape:pagecheckerboard="0"
     inkscape:deskcolor="#d1d1d1"
     inkscape:document-units="mm"
     showgrid="false"
     inkscape:zoom="0.31559402"
     inkscape:cx="625.804"
     inkscape:cy="602.03929"
     inkscape:window-width="1920"
     inkscape:window-height="1009"
     inkscape:window-x="-8"
     inkscape:window-y="531"
     inkscape:window-maximized="1"
     inkscape:current-layer="layer1" /><defs
     id="defs2" /><g
     inkscape:label="Layer 1"
     inkscape:groupmode="layer"
     id="layer1"><g
       id="g197"
       transform="matrix(0.58807838,0,0,0.56695419,260.21519,64.151115)"><path
         style="fill:#fefefe;stroke-width:0.264583"
         d="M -422.5524,130.71557 V -28.034431 h 158.75 158.75 v 158.750001 158.75 h -158.75 -158.75 z m 171.58229,87.33055 c 10.90836,-1.67165 20.40979,-4.80566 27.11979,-8.94536 12.57008,-7.75503 23.13588,-21.01449 29.46587,-36.9779 1.76338,-4.44702 4.18861,-12.6827 3.54509,-12.03854 -0.0727,0.0728 -1.08642,1.32292 -2.25274,2.77812 -2.48985,3.10657 -6.78947,7.46906 -9.59155,9.7318 -13.59415,10.97758 -28.81455,13.28613 -45.04454,6.8321 -7.48513,-2.97654 -10.97787,-5.6767 -21.03959,-16.26521 -3.16263,-3.32822 -7.28464,-7.47576 -9.16002,-9.21676 -14.37226,-13.34241 -27.53479,-19.74859 -45.93502,-22.35649 -4.82609,-0.68401 -19.79102,-0.67939 -24.87083,0.008 -12.74213,1.72345 -23.00367,5.34672 -31.9284,11.27366 -14.38419,9.5526 -24.30746,24.6208 -28.5348,43.32929 -0.35167,1.55636 -0.59751,2.87163 -0.5463,2.92283 0.0512,0.0512 0.74457,-0.83547 1.54081,-1.9704 3.17024,-4.51867 7.96375,-9.26248 13.11353,-12.97755 2.82944,-2.04117 9.37124,-5.33914 12.75308,-6.42932 5.64832,-1.8208 13.11022,-2.40741 18.52083,-1.45599 4.65164,0.81795 10.0583,2.91616 14.7934,5.74099 6.49204,3.87298 11.75641,8.303 22.90653,19.27609 5.13217,5.05068 9.77421,9.37634 11.24961,10.48288 12.29237,9.2192 27.17529,15.03492 42.86088,16.74853 1.23692,0.13513 5.64224,0.20778 9.78958,0.16145 6.06674,-0.0678 8.26464,-0.19519 11.24479,-0.65189 z m 70.7217,-86.91872 c 8.61444,-1.11639 17.28899,-3.41199 23.41068,-6.19531 4.68783,-2.1314 10.31946,-5.93889 15.00825,-10.14696 7.88659,-7.078 15.41288,-18.295259 19.93426,-29.710186 2.16281,-5.460376 4.27651,-12.797457 3.43001,-11.90625 -0.13822,0.145521 -1.26992,1.51474 -2.51489,3.042708 -8.17743,10.036321 -17.89531,16.445484 -28.55392,18.831936 -2.41093,0.539803 -3.4254,0.613519 -8.30275,0.603321 -4.74424,-0.0099 -5.96227,-0.09901 -8.33438,-0.609605 -6.44795,-1.387906 -14.09898,-4.628465 -18.2729,-7.739398 -1.36221,-1.015297 -6.40898,-5.857375 -12.94793,-12.422799 -10.83207,-10.875904 -14.35672,-14.02398 -19.7976,-17.682422 -8.83526,-5.940814 -17.6457,-9.637977 -27.81535,-11.67226 -16.82012,-3.364619 -36.26631,-1.929559 -50.67976,3.739983 -13.1259,5.163079 -23.86797,14.073034 -31.38375,26.031082 -4.20902,6.6968 -8.06841,16.298942 -9.63173,23.963712 -0.51134,2.507048 -0.42296,3.033158 0.30313,1.804468 1.08445,-1.835115 4.91886,-6.32988 7.41599,-8.69316 8.36566,-7.917246 17.56724,-12.429212 27.5745,-13.521073 12.61133,-1.375987 24.70432,3.779019 38.78548,16.5335 1.45503,1.317942 6.21955,5.912563 10.58782,10.210273 8.10476,7.97385 10.01273,9.56841 15.74752,13.16077 11.16723,6.99533 24.57006,11.48106 38.1,12.75152 3.62581,0.34046 14.1118,0.12191 17.93732,-0.37385 z"
         id="path213" /><path
         style="fill:#cff0f6;stroke-width:0.264583"
         d="m -257.50201,218.64108 c 0.191,-0.0764 0.4192,-0.067 0.50712,0.0209 0.0879,0.0879 -0.0684,0.15045 -0.34727,0.13896 -0.30822,-0.0127 -0.37092,-0.0754 -0.15985,-0.15985 z m 42.91211,-16.58791 c 0,-0.0549 0.20836,-0.2633 0.46302,-0.46302 0.41965,-0.32911 0.429,-0.31975 0.0999,0.0999 -0.34565,0.44073 -0.56292,0.58089 -0.56292,0.36312 z m 3.83646,-3.86885 c 0.26339,-0.29104 0.53842,-0.52917 0.61118,-0.52917 0.0728,0 -0.0832,0.23813 -0.3466,0.52917 -0.26339,0.29104 -0.53842,0.52917 -0.61118,0.52917 -0.0728,0 0.0832,-0.23813 0.3466,-0.52917 z m -108.76889,-0.33073 -0.50403,-0.59531 0.59531,0.50403 c 0.55945,0.47366 0.71577,0.68659 0.50403,0.68659 -0.0502,0 -0.3181,-0.26789 -0.59531,-0.59531 z m -14.2875,-14.02292 -0.50403,-0.59531 0.59531,0.50403 c 0.55945,0.47366 0.71577,0.6866 0.50403,0.6866 -0.0502,0 -0.3181,-0.26789 -0.59531,-0.59532 z m 105.94115,-0.90834 c 0.191,-0.0764 0.4192,-0.067 0.50712,0.0209 0.0879,0.0879 -0.0684,0.15045 -0.34726,0.13896 -0.30823,-0.0127 -0.37092,-0.0754 -0.15986,-0.15985 z m -33.5725,-12.18853 -0.64143,-0.72761 0.72761,0.64144 c 0.40018,0.35279 0.7276,0.68021 0.7276,0.7276 0,0.20751 -0.21426,0.0386 -0.81378,-0.64143 z m 61.40336,-0.41352 c 0,-0.0455 0.38696,-0.43249 0.8599,-0.8599 l 0.8599,-0.7771 -0.77711,0.85989 c -0.72437,0.80155 -0.94269,0.98151 -0.94269,0.77711 z m 3.175,-3.2245 c 0.34178,-0.3638 0.68094,-0.66146 0.7537,-0.66146 0.0728,0 -0.14734,0.29766 -0.48911,0.66146 -0.34178,0.3638 -0.68094,0.66146 -0.7537,0.66146 -0.0728,0 0.14734,-0.29766 0.48911,-0.66146 z m -69.59966,-1.38907 -0.91179,-0.99218 0.99218,0.9118 c 0.92351,0.84868 1.11384,1.07257 0.9118,1.07257 -0.0442,0 -0.4907,-0.44648 -0.99219,-0.99219 z m -105.21874,0.0151 c 0.25743,-0.0671 0.61462,-0.0627 0.79375,0.01 0.17913,0.0725 -0.0315,0.12736 -0.46805,0.12197 -0.43657,-0.005 -0.58313,-0.0647 -0.3257,-0.13177 z m 3.03767,0.008 c 0.18191,-0.0734 0.47956,-0.0734 0.66146,0 0.1819,0.0734 0.0331,0.13345 -0.33073,0.13345 -0.3638,0 -0.51263,-0.06 -0.33073,-0.13345 z m 95.70308,-6.77008 -1.31297,-1.38906 1.38906,1.31297 c 1.29074,1.22003 1.5104,1.46515 1.31297,1.46515 -0.0419,0 -0.66693,-0.62508 -1.38906,-1.38906 z m -3.30638,-3.30729 -1.44617,-1.52136 1.52135,1.44617 c 0.83674,0.7954 1.52135,1.48001 1.52135,1.52136 0,0.19639 -0.253,-0.0328 -1.59653,-1.44617 z m -4.25805,-3.96875 c -0.32911,-0.41965 -0.31975,-0.42901 0.0999,-0.0999 0.25466,0.19972 0.46302,0.40808 0.46302,0.46302 0,0.21777 -0.21728,0.0776 -0.56292,-0.36312 z m 84.91539,-20.09064 c 0.191,-0.0764 0.4192,-0.067 0.50712,0.0209 0.0879,0.0879 -0.0684,0.15045 -0.34727,0.13896 -0.30822,-0.0127 -0.37092,-0.0754 -0.15985,-0.15985 z m 8.99583,0 c 0.191,-0.0764 0.4192,-0.067 0.50712,0.0209 0.0879,0.0879 -0.0684,0.15045 -0.34726,0.13896 -0.30823,-0.0127 -0.37092,-0.0754 -0.15986,-0.15985 z M -343.22701,131.064 c 0.191,-0.0764 0.4192,-0.067 0.50712,0.0209 0.0879,0.0879 -0.0683,0.15045 -0.34727,0.13897 -0.30822,-0.0127 -0.37092,-0.0754 -0.15985,-0.15985 z m 13.75833,0 c 0.191,-0.0764 0.4192,-0.067 0.50712,0.0209 0.0879,0.0879 -0.0683,0.15045 -0.34726,0.13897 -0.30823,-0.0127 -0.37092,-0.0754 -0.15986,-0.15985 z m 189.62357,-18.3401 c 0.86403,-0.87312 1.63047,-1.5875 1.70323,-1.5875 0.0728,0 -0.57462,0.71438 -1.43864,1.5875 -0.86403,0.87313 -1.63047,1.5875 -1.70323,1.5875 -0.0728,0 0.57462,-0.71437 1.43864,-1.5875 z m -105.73479,-0.7276 c -0.32911,-0.41965 -0.31975,-0.42901 0.0999,-0.0999 0.25466,0.19972 0.46302,0.40808 0.46302,0.46302 0,0.21777 -0.21728,0.0776 -0.56292,-0.36312 z m -13.74461,-13.493752 -0.64143,-0.727604 0.7276,0.641432 c 0.68006,0.599517 0.84894,0.813776 0.64143,0.813776 -0.0474,0 -0.37481,-0.327422 -0.7276,-0.727604 z m 71.68836,-13.758333 c -0.32911,-0.419645 -0.31975,-0.429004 0.0999,-0.0999 0.44073,0.345643 0.58088,0.562917 0.36312,0.562917 -0.0549,0 -0.2633,-0.20836 -0.46302,-0.463021 z m 62.07854,-3.505729 c 0.56838,-0.582084 1.09297,-1.058334 1.16573,-1.058334 0.0728,0 -0.33277,0.47625 -0.90115,1.058334 -0.56837,0.582083 -1.09296,1.058333 -1.16572,1.058333 -0.0728,0 0.33276,-0.47625 0.90114,-1.058333 z m -70.66039,-5.093229 -0.77711,-0.859896 0.8599,0.777105 c 0.47294,0.427408 0.85989,0.814361 0.85989,0.859896 0,0.204406 -0.21831,0.02445 -0.94268,-0.777105 z m -10.59183,-10.583334 -0.50403,-0.595312 0.59531,0.504028 c 0.32743,0.277215 0.59532,0.545105 0.59532,0.595313 0,0.211733 -0.21294,0.05542 -0.6866,-0.504029 z m -60.76288,-21.804916 c 0.1819,-0.0734 0.47955,-0.0734 0.66146,0 0.1819,0.0734 0.0331,0.133454 -0.33073,0.133454 -0.36381,0 -0.51263,-0.06006 -0.33073,-0.133454 z m 7.28107,-0.0081 c 0.25744,-0.06708 0.61462,-0.06267 0.79375,0.0098 0.17914,0.07248 -0.0315,0.127362 -0.46805,0.12197 -0.43656,-0.0054 -0.58313,-0.06469 -0.3257,-0.131773 z"
         id="path211" /><path
         style="fill:#afe6f0;stroke-width:0.264583"
         d="m -212.60552,200.0364 c 0.71666,-0.7276 1.36255,-1.32291 1.43531,-1.32291 0.0728,0 -0.45407,0.59531 -1.17073,1.32291 -0.71667,0.72761 -1.36256,1.32292 -1.43532,1.32292 -0.0728,0 0.45407,-0.59531 1.17074,-1.32292 z m -108.23123,-3.50573 -0.77711,-0.85989 0.8599,0.7771 c 0.80154,0.72437 0.98151,0.94269 0.7771,0.94269 -0.0455,0 -0.43249,-0.38695 -0.85989,-0.8599 z m -6.20107,-6.15156 c -0.64268,-0.65484 -1.10898,-1.19062 -1.03622,-1.19062 0.0728,0 0.65813,0.53578 1.30081,1.19062 0.64268,0.65484 1.10898,1.19063 1.03622,1.19063 -0.0728,0 -0.65813,-0.53579 -1.30081,-1.19063 z m 93.34831,-7.45678 c 0.191,-0.0764 0.4192,-0.067 0.50712,0.0209 0.0879,0.0879 -0.0684,0.15045 -0.34727,0.13896 -0.30822,-0.0127 -0.37092,-0.0754 -0.15985,-0.15985 z M -267.8049,164.3838 c -0.32911,-0.41965 -0.31975,-0.42901 0.0999,-0.0999 0.25466,0.19972 0.46302,0.40808 0.46302,0.46302 0,0.21777 -0.21728,0.0776 -0.56292,-0.36312 z m -124.585,-11.54313 c 0,-0.0549 0.20836,-0.2633 0.46302,-0.46302 0.41965,-0.32911 0.429,-0.31975 0.0999,0.0999 -0.34565,0.44073 -0.56292,0.58089 -0.56292,0.36312 z m 3.43958,-3.43958 c 0,-0.0549 0.20836,-0.2633 0.46302,-0.46302 0.41965,-0.32911 0.42901,-0.31975 0.0999,0.0999 -0.34564,0.44073 -0.56292,0.58089 -0.56292,0.36313 z m 194.15456,-17.80793 c 0.191,-0.0764 0.4192,-0.067 0.50712,0.0209 0.0879,0.0879 -0.0684,0.15045 -0.34727,0.13896 -0.30822,-0.0127 -0.37092,-0.0754 -0.15985,-0.15985 z m 7.12721,0.006 c 0.18191,-0.0734 0.47956,-0.0734 0.66146,0 0.1819,0.0734 0.0331,0.13345 -0.33073,0.13345 -0.3638,0 -0.51263,-0.0601 -0.33073,-0.13345 z m -72.72802,-34.154455 c -0.3291,-0.419645 -0.31975,-0.429004 0.0999,-0.0999 0.44073,0.345643 0.58089,0.562917 0.36312,0.562917 -0.0549,0 -0.2633,-0.20836 -0.46302,-0.463021 z m 101.56171,-1.58002 c 0.46969,-0.05845 1.30312,-0.05941 1.85208,-0.0021 0.54896,0.05728 0.16465,0.105098 -0.85399,0.106272 -1.01865,0.0011 -1.46779,-0.04569 -0.99809,-0.104137 z m 31.55746,-12.873522 c 0,-0.05494 0.20836,-0.2633 0.46302,-0.463021 0.41966,-0.329107 0.429,-0.319749 0.0999,0.0999 -0.34565,0.44073 -0.56293,0.580888 -0.56293,0.363125 z m 2.91042,-2.910417 c 0,-0.05494 0.20836,-0.2633 0.46302,-0.463021 0.41965,-0.329107 0.42899,-0.319749 0.0999,0.0999 -0.34565,0.440729 -0.56292,0.580887 -0.56292,0.363124 z m -73.05875,-5.125624 c -0.32911,-0.419646 -0.31975,-0.429004 0.0999,-0.0999 0.44073,0.345644 0.58089,0.562917 0.36313,0.562917 -0.0549,0 -0.2633,-0.208359 -0.46302,-0.46302 z m -68.82098,-31.209526 c 0.32912,-0.06329 0.80537,-0.06088 1.05833,0.0053 0.25297,0.06622 -0.0163,0.118004 -0.59839,0.115067 -0.58209,-0.0029 -0.78906,-0.05712 -0.45994,-0.120406 z m 4.63216,0.0038 c 0.25743,-0.06708 0.61462,-0.06267 0.79375,0.0098 0.17913,0.07248 -0.0315,0.127363 -0.46806,0.12197 -0.43656,-0.0054 -0.58312,-0.06469 -0.32569,-0.131773 z"
         id="path209" /><path
         style="fill:#8adbea;stroke-width:0.264583"
         d="m -323.73673,193.62026 -2.11046,-2.18282 2.18281,2.11046 c 1.20055,1.16076 2.18281,2.14302 2.18281,2.18282 0,0.19297 -0.29503,-0.0831 -2.25516,-2.11046 z m -6.09166,-6.08542 -1.04588,-1.12448 1.12447,1.04589 c 0.61847,0.57523 1.12448,1.08125 1.12448,1.12447 0,0.20018 -0.23041,-1.3e-4 -1.20307,-1.04588 z m 61.22974,-23.94479 c -0.32911,-0.41965 -0.31975,-0.42901 0.0999,-0.0999 0.25466,0.19972 0.46302,0.40808 0.46302,0.46302 0,0.21777 -0.21728,0.0776 -0.56292,-0.36312 z m -121.01312,-13.5599 c 0.26339,-0.29104 0.53842,-0.52916 0.61118,-0.52916 0.0728,0 -0.0832,0.23812 -0.3466,0.52916 -0.26339,0.29104 -0.53842,0.52917 -0.61118,0.52917 -0.0728,0 0.0832,-0.23813 0.3466,-0.52917 z m 195.59322,-18.43148 c 0.18191,-0.0734 0.47956,-0.0734 0.66146,0 0.1819,0.0734 0.0331,0.13346 -0.33073,0.13346 -0.3638,0 -0.51263,-0.0601 -0.33073,-0.13346 z m 5.29167,0 c 0.1819,-0.0734 0.47956,-0.0734 0.66146,0 0.1819,0.0734 0.0331,0.13346 -0.33073,0.13346 -0.3638,0 -0.51263,-0.0601 -0.33073,-0.13346 z M -341.90409,131.064 c 0.19099,-0.0764 0.4192,-0.067 0.50712,0.0209 0.0879,0.0879 -0.0684,0.15045 -0.34727,0.13897 -0.30823,-0.0127 -0.37092,-0.0754 -0.15985,-0.15985 z m 11.1125,0 c 0.19099,-0.0764 0.4192,-0.067 0.50712,0.0209 0.0879,0.0879 -0.0684,0.15045 -0.34727,0.13897 -0.30823,-0.0127 -0.37092,-0.0754 -0.15985,-0.15985 z m 69.60127,-34.413535 c -0.3291,-0.419645 -0.31975,-0.429004 0.0999,-0.0999 0.25466,0.19972 0.46302,0.40808 0.46302,0.463021 0,0.217762 -0.21727,0.07761 -0.56292,-0.363125 z m 105.28831,-0.776052 c 0.191,-0.07643 0.41921,-0.06703 0.50713,0.02087 0.0879,0.08792 -0.0684,0.150453 -0.34727,0.138965 -0.30824,-0.0127 -0.37092,-0.07539 -0.15986,-0.159851 z m -175.10456,-1.754135 c 0,-0.04554 0.38696,-0.432488 0.8599,-0.859896 l 0.8599,-0.777105 -0.77711,0.859896 c -0.72437,0.801545 -0.94269,0.981512 -0.94269,0.777105 z m 139.69236,-12.815647 -1.71215,-1.785937 1.78594,1.712148 c 0.98226,0.941681 1.78594,1.745353 1.78594,1.785937 0,0.194739 -0.26941,-0.05329 -1.85973,-1.712148 z m -7.15613,-7.408333 -0.64143,-0.727604 0.7276,0.641432 c 0.40018,0.35279 0.7276,0.680212 0.7276,0.727604 0,0.207508 -0.21426,0.03862 -0.81377,-0.641432 z m -65.65805,-30.155814 c 0.47555,-0.05889 1.18992,-0.05767 1.5875,0.0027 0.39758,0.06037 0.008,0.108551 -0.86463,0.107066 -0.87313,-0.0016 -1.19842,-0.05088 -0.72287,-0.109766 z"
         id="path207" /><path
         style="fill:#6ed3e5;stroke-width:0.264583"
         d="m -331.3049,186.07963 c -0.32911,-0.41964 -0.31975,-0.429 0.0999,-0.0999 0.25466,0.19972 0.46302,0.40808 0.46302,0.46302 0,0.21776 -0.21728,0.0776 -0.56292,-0.36313 z m 61.9125,-23.28333 c -0.32911,-0.41965 -0.31975,-0.42901 0.0999,-0.0999 0.25466,0.19972 0.46302,0.40808 0.46302,0.46302 0,0.21777 -0.21728,0.0776 -0.56292,-0.36312 z m -121.27771,-11.70781 c 0.26339,-0.29105 0.53842,-0.52917 0.61118,-0.52917 0.0728,0 -0.0832,0.23812 -0.34659,0.52917 -0.2634,0.29104 -0.53843,0.52916 -0.61119,0.52916 -0.0728,0 0.0832,-0.23812 0.3466,-0.52916 z m 198.50365,-19.50832 c 0.61846,-0.0557 1.63049,-0.0557 2.24896,0 0.61846,0.0557 0.11244,0.10128 -1.12448,0.10128 -1.23693,0 -1.74295,-0.0456 -1.12448,-0.10128 z M -329.41907,92.515673 c 0,-0.05494 0.20836,-0.2633 0.46302,-0.463021 0.41965,-0.329107 0.42901,-0.319749 0.0999,0.0999 -0.34564,0.44073 -0.56292,0.580888 -0.56292,0.363125 z m 140.19542,-9.094375 c -0.32911,-0.419645 -0.31975,-0.429003 0.0999,-0.0999 0.44073,0.345644 0.58088,0.562917 0.36312,0.562917 -0.0549,0 -0.2633,-0.208359 -0.46302,-0.463021 z m -4.23333,-4.233333 c -0.32911,-0.419645 -0.31975,-0.429004 0.0999,-0.0999 0.44073,0.345643 0.58089,0.562917 0.36313,0.562917 -0.0549,0 -0.2633,-0.20836 -0.46302,-0.463021 z m -6.2091,-6.482292 -0.50403,-0.595312 0.59531,0.504028 c 0.32743,0.277215 0.59532,0.545105 0.59532,0.595313 0,0.211733 -0.21294,0.05542 -0.6866,-0.504029 z m -5.43257,-5.423958 c -0.32911,-0.419645 -0.31975,-0.429004 0.0999,-0.0999 0.44073,0.345643 0.58088,0.562917 0.36312,0.562917 -0.0549,0 -0.2633,-0.20836 -0.46302,-0.463021 z m -111.62042,-4.663959 c 0,-0.05494 0.20836,-0.2633 0.46302,-0.463021 0.41965,-0.329107 0.42901,-0.319749 0.0999,0.0999 -0.34564,0.440729 -0.56292,0.580887 -0.56292,0.363124 z"
         id="path205" /><path
         style="fill:#54cbe1;stroke-width:0.264583"
         d="m -267.55618,218.64108 c 0.191,-0.0764 0.4192,-0.067 0.50712,0.0209 0.0879,0.0879 -0.0684,0.15045 -0.34726,0.13896 -0.30823,-0.0127 -0.37092,-0.0754 -0.15986,-0.15985 z m 7.65638,0.006 c 0.18191,-0.0734 0.47956,-0.0734 0.66146,0 0.1819,0.0734 0.0331,0.13346 -0.33073,0.13346 -0.3638,0 -0.51263,-0.0601 -0.33073,-0.13346 z m -72.19885,-33.3607 c -0.32911,-0.41964 -0.31975,-0.429 0.0999,-0.0999 0.25466,0.19972 0.46302,0.40808 0.46302,0.46302 0,0.21776 -0.21728,0.0776 -0.56292,-0.36313 z m -71.66833,-3.87021 c 0,-0.0549 0.20836,-0.2633 0.46302,-0.46302 0.41964,-0.32911 0.429,-0.31975 0.0999,0.0999 -0.34564,0.44073 -0.56291,0.58089 -0.56291,0.36312 z m 1.32291,-1.32291 c 0,-0.0549 0.20836,-0.2633 0.46302,-0.46302 0.41965,-0.32911 0.42901,-0.31975 0.0999,0.0999 -0.34564,0.44073 -0.56292,0.58089 -0.56292,0.36313 z m 132.25792,-18.09021 c -0.32911,-0.41965 -0.31975,-0.42901 0.0999,-0.0999 0.25466,0.19972 0.46302,0.40808 0.46302,0.46302 0,0.21777 -0.21728,0.0776 -0.56292,-0.36312 z M -340.58118,131.064 c 0.191,-0.0764 0.4192,-0.067 0.50712,0.0209 0.0879,0.0879 -0.0684,0.15045 -0.34726,0.13897 -0.30823,-0.0127 -0.37092,-0.0754 -0.15986,-0.15985 z m 8.46667,0 c 0.191,-0.0764 0.4192,-0.067 0.50712,0.0209 0.0879,0.0879 -0.0684,0.15045 -0.34727,0.13897 -0.30822,-0.0127 -0.37092,-0.0754 -0.15985,-0.15985 z m 83.90828,-21.71354 -0.91179,-0.99218 0.99218,0.9118 c 0.92351,0.84868 1.11384,1.07257 0.9118,1.07257 -0.0442,0 -0.4907,-0.44648 -0.99219,-0.99219 z m -6.60937,-6.61458 -1.44617,-1.52135 1.52135,1.44617 c 0.83674,0.79539 1.52135,1.48 1.52135,1.52135 0,0.19639 -0.253,-0.0328 -1.59653,-1.44617 z m -73.80972,-11.013957 c 0,-0.05494 0.20836,-0.2633 0.46302,-0.463021 0.41965,-0.329107 0.42901,-0.319749 0.0999,0.0999 -0.34564,0.44073 -0.56292,0.580888 -0.56292,0.363125 z m 134.37459,-13.327708 c -0.32911,-0.419645 -0.31975,-0.429004 0.0999,-0.0999 0.44073,0.345643 0.58089,0.562917 0.36313,0.562917 -0.0549,0 -0.2633,-0.20836 -0.46302,-0.463021 z m -104.41052,0.01605 c 0.25466,-0.06655 0.67138,-0.06655 0.92604,0 0.25466,0.06655 0.0463,0.121002 -0.46302,0.121002 -0.50933,0 -0.71769,-0.05445 -0.46302,-0.121002 z m 1.98437,0.0071 c 0.1819,-0.0734 0.47956,-0.0734 0.66146,0 0.1819,0.0734 0.0331,0.133453 -0.33073,0.133453 -0.3638,0 -0.51263,-0.06006 -0.33073,-0.133453 z m 95.95247,-6.770071 -0.50403,-0.595313 0.59531,0.504029 c 0.32742,0.277214 0.59531,0.545105 0.59531,0.595312 0,0.211733 -0.21293,0.05542 -0.68659,-0.504028 z m -3.30218,-3.307292 -0.64143,-0.727604 0.7276,0.641432 c 0.40018,0.35279 0.7276,0.680212 0.7276,0.727604 0,0.207508 -0.21426,0.03862 -0.81377,-0.641432 z m -114.80914,-3.605625 c 0,-0.05494 0.20836,-0.2633 0.46302,-0.463021 0.41964,-0.329107 0.429,-0.319749 0.0999,0.0999 -0.34564,0.44073 -0.56291,0.580888 -0.56291,0.363125 z m 1.45521,-1.487604 c 0.26339,-0.291042 0.53842,-0.529167 0.61118,-0.529167 0.0728,0 -0.0832,0.238125 -0.3466,0.529167 -0.26339,0.291042 -0.53842,0.529167 -0.61118,0.529167 -0.0728,0 0.0832,-0.238125 0.3466,-0.529167 z"
         id="path203" /><path
         style="fill:#35c2db;stroke-width:0.264583"
         d="m -266.77896,218.64659 c 0.1819,-0.0734 0.47955,-0.0734 0.66146,0 0.1819,0.0734 0.0331,0.13345 -0.33073,0.13345 -0.36381,0 -0.51263,-0.0601 -0.33073,-0.13345 z m 5.82083,0 c 0.1819,-0.0734 0.47956,-0.0734 0.66146,0 0.1819,0.0734 0.0331,0.13345 -0.33073,0.13345 -0.3638,0 -0.51263,-0.0601 -0.33073,-0.13345 z m 45.83906,-16.32883 c 0,-0.0549 0.20836,-0.2633 0.46302,-0.46302 0.41965,-0.32911 0.42901,-0.31975 0.0999,0.0999 -0.34564,0.44073 -0.56292,0.58089 -0.56292,0.36313 z m -103.75041,-4.0673 c -0.32911,-0.41964 -0.31975,-0.429 0.0999,-0.0999 0.44073,0.34564 0.58089,0.56292 0.36313,0.56292 -0.0549,0 -0.2633,-0.20836 -0.46302,-0.46303 z m 108.24833,-0.43062 c 0,-0.0549 0.20836,-0.2633 0.46302,-0.46302 0.41965,-0.32911 0.429,-0.31975 0.0999,0.0999 -0.34565,0.44073 -0.56292,0.58089 -0.56292,0.36313 z m -122.52211,-13.59229 -0.64143,-0.72761 0.7276,0.64144 c 0.68006,0.59951 0.84894,0.81377 0.64143,0.81377 -0.0474,0 -0.37481,-0.32742 -0.7276,-0.7276 z m 102.34763,-1.04662 c 0.32742,-0.0631 0.8632,-0.0631 1.19063,0 0.32742,0.0631 0.0595,0.11466 -0.59532,0.11466 -0.65484,0 -0.92273,-0.0516 -0.59531,-0.11466 z m -173.63281,-1.13619 c 0.26339,-0.29105 0.53842,-0.52917 0.61118,-0.52917 0.0728,0 -0.0832,0.23812 -0.3466,0.52917 -0.26339,0.29104 -0.53842,0.52916 -0.61118,0.52916 -0.0728,0 0.0832,-0.23812 0.3466,-0.52916 z m 3.30729,-3.3073 c 0.34177,-0.3638 0.68094,-0.66145 0.7537,-0.66145 0.0728,0 -0.14734,0.29765 -0.48912,0.66145 -0.34177,0.36381 -0.68094,0.66146 -0.7537,0.66146 -0.0728,0 0.14735,-0.29765 0.48912,-0.66146 z m 137.18149,-10.2526 -2.64086,-2.71198 2.71197,2.64087 c 2.5189,2.45285 2.83227,2.78309 2.64087,2.78309 -0.0391,0 -1.2595,-1.22039 -2.71198,-2.71198 z m 65.88622,0.0662 c 0.86401,-0.87313 1.63046,-1.5875 1.70322,-1.5875 0.0728,0 -0.57462,0.71437 -1.43864,1.5875 -0.86401,0.87312 -1.63046,1.5875 -1.70322,1.5875 -0.0728,0 0.57462,-0.71438 1.43864,-1.5875 z m -73.56662,-8.00365 -1.04588,-1.12448 1.12448,1.04589 c 1.04575,0.97266 1.24606,1.20307 1.04588,1.20307 -0.0432,0 -0.54924,-0.50602 -1.12448,-1.12448 z m -6.08961,-6.08542 -0.7771,-0.85989 0.85989,0.7771 c 0.80155,0.72437 0.98151,0.94269 0.77711,0.94269 -0.0455,0 -0.43249,-0.38695 -0.8599,-0.8599 z m -61.962,-23.39957 c 0.25466,-0.0666 0.67138,-0.0666 0.92604,0 0.25466,0.0665 0.0463,0.121 -0.46302,0.121 -0.50932,0 -0.71768,-0.0545 -0.46302,-0.121 z m 6.35503,-0.001 c 0.25744,-0.0671 0.61462,-0.0627 0.79375,0.01 0.17914,0.0725 -0.0315,0.12736 -0.46805,0.12197 -0.43656,-0.005 -0.58313,-0.0647 -0.3257,-0.13177 z m 191.88403,-17.01447 c 0.26339,-0.29104 0.53843,-0.52917 0.61119,-0.52917 0.0728,0 -0.0832,0.23813 -0.3466,0.52917 -0.2634,0.29104 -0.53843,0.52917 -0.61119,0.52917 -0.0728,0 0.0832,-0.23813 0.3466,-0.52917 z m -103.61812,-1.78594 c -0.32911,-0.41964 -0.31975,-0.429 0.0999,-0.0999 0.25466,0.19972 0.46302,0.40808 0.46302,0.46302 0,0.21776 -0.21727,0.0776 -0.56291,-0.36313 z m 106.52854,-1.12448 c 0.26339,-0.29104 0.53843,-0.52916 0.61119,-0.52916 0.0728,0 -0.0832,0.23812 -0.34661,0.52916 -0.26339,0.29104 -0.53843,0.52917 -0.61119,0.52917 -0.0728,0 0.0832,-0.23813 0.34661,-0.52917 z m -112.71871,-4.82864 -2.11046,-2.18282 2.18281,2.11046 c 1.20055,1.16076 2.18282,2.14302 2.18282,2.18282 0,0.19297 -0.29504,-0.0831 -2.25517,-2.11046 z m -6.48512,-6.482295 -1.44617,-1.521354 1.52135,1.44617 c 1.41339,1.343539 1.64256,1.596539 1.44617,1.596539 -0.0413,0 -0.72596,-0.68461 -1.52135,-1.521355 z m -5.0518,-4.7625 c -0.3291,-0.419645 -0.31975,-0.429004 0.0999,-0.0999 0.25466,0.19972 0.46302,0.40808 0.46302,0.463021 0,0.217762 -0.21727,0.0776 -0.56292,-0.363125 z m 74.6125,-10.583333 c -0.3291,-0.419646 -0.31975,-0.429004 0.0999,-0.0999 0.25466,0.199721 0.46302,0.408081 0.46302,0.463021 0,0.217763 -0.21727,0.07761 -0.56292,-0.363124 z m -107.45323,-6.062208 c 0.18191,-0.0734 0.47956,-0.0734 0.66146,0 0.1819,0.0734 0.0331,0.133453 -0.33073,0.133453 -0.3638,0 -0.51263,-0.06006 -0.33073,-0.133453 z m 100.1943,-1.213834 -0.77711,-0.859896 0.8599,0.777105 c 0.47294,0.427408 0.85989,0.814361 0.85989,0.859896 0,0.204406 -0.21831,0.02445 -0.94268,-0.777105 z m -6.87497,-7.14375 -1.04589,-1.124479 1.12448,1.045884 c 0.61846,0.575236 1.12448,1.081252 1.12448,1.12448 0,0.200178 -0.23041,-1.3e-4 -1.20307,-1.045885 z m -5.18068,-4.894792 c -0.32911,-0.419645 -0.31975,-0.429003 0.0999,-0.0999 0.25466,0.199721 0.46302,0.40808 0.46302,0.463021 0,0.217763 -0.21728,0.07761 -0.56292,-0.363125 z m -62.19294,-21.148969 c 0.19099,-0.07643 0.4192,-0.06703 0.50712,0.02088 0.0879,0.08792 -0.0684,0.150453 -0.34727,0.138965 -0.30823,-0.0127 -0.37092,-0.07539 -0.15985,-0.159851 z m 11.64166,0 c 0.191,-0.07643 0.4192,-0.06703 0.50712,0.02088 0.0879,0.08792 -0.0683,0.150453 -0.34726,0.138965 -0.30823,-0.0127 -0.37092,-0.07539 -0.15986,-0.159851 z"
         id="path201" /><path
         style="fill:#06b5d4;stroke-width:0.264583"
         d="m -267.37427,218.64349 c -14.64377,-0.72198 -29.07736,-5.2534 -41.62666,-13.06867 -5.35376,-3.33414 -8.11933,-5.67028 -16.58168,-14.00688 -12.54239,-12.35603 -16.72134,-15.85651 -23.94479,-20.05727 -6.94607,-4.03946 -13.34351,-5.86701 -20.54506,-5.86909 -9.32817,-0.003 -18.15166,3.16048 -26.81536,9.61319 -3.10794,2.31479 -8.59424,7.78946 -10.71562,10.69292 -0.87313,1.19501 -1.62723,2.05575 -1.67579,1.91275 -0.15752,-0.46389 1.56111,-6.88488 2.78248,-10.39568 7.65212,-21.99575 23.48272,-37.07363 45.32768,-43.17242 15.88332,-4.43439 36.09529,-4.21605 51.32917,0.55449 11.43332,3.58039 20.76255,9.17664 31.12881,18.673 1.91392,1.75331 6.31923,6.16585 9.78958,9.80564 9.12466,9.57018 12.49053,12.34956 18.18174,15.01366 11.32369,5.3007 22.48018,6.2769 32.97487,2.88532 9.02989,-2.91819 17.76834,-9.38369 25.17564,-18.62722 0.75605,-0.94347 1.4109,-1.67915 1.45521,-1.63484 0.28161,0.28161 -2.35747,8.5324 -3.97452,12.42591 -6.78097,16.32712 -17.97409,29.57282 -31.123,36.8303 -8.1841,4.51717 -19.94823,7.54161 -32.41145,8.33265 -4.04814,0.25694 -5.15384,0.26862 -8.73125,0.0922 z m 69.85,-87.31401 c -11.05391,-0.94924 -20.97471,-3.68918 -30.95625,-8.54956 -9.74197,-4.74371 -13.34719,-7.42694 -23.81684,-17.72601 -4.51354,-4.43999 -9.28763,-9.039596 -10.6091,-10.221342 -13.87039,-12.403804 -25.62129,-17.439481 -37.92474,-16.2521 -9.17322,0.885288 -17.78336,4.662318 -25.62346,11.240305 -2.94703,2.472602 -6.57259,6.272768 -8.59842,9.012504 -1.94437,2.629573 -1.87296,2.566683 -1.65222,1.455213 1.48724,-7.488652 4.62168,-15.90377 8.3293,-22.361945 8.72634,-15.200074 21.50172,-25.293725 38.50008,-30.418386 15.34109,-4.625028 36.04186,-4.724593 51.20894,-0.246306 6.78395,2.003057 14.10209,5.367517 19.84375,9.12301 6.98012,4.56555 11.36155,8.412208 21.95965,19.279347 11.92176,12.224419 13.84218,13.696645 22.22576,17.038701 6.12273,2.440778 12.24261,3.52304 18.49044,3.269911 9.04803,-0.36658 17.15976,-3.466105 25.29811,-9.666528 2.34907,-1.789719 7.83608,-7.231473 10.11213,-10.028746 1.09524,-1.346068 2.03854,-2.447396 2.09622,-2.447396 0.35779,0 -1.69,6.720909 -3.26496,10.715625 -7.46382,18.931203 -20.41956,33.625613 -35.64861,40.432683 -6.80404,3.04126 -16.68367,5.43906 -25.72782,6.24417 -2.93881,0.26161 -11.6764,0.32717 -14.24196,0.10685 z"
         id="path199" /></g></g></svg>
