{
  "accessors": [
    {
      "bufferView": 2,
      "componentType": 5126,
      "count": 1049,
      "max": [
        39.34999465942383,
        17.582107543945313,
        101.77738952636719
      ],
      "min": [
        -79.35000610351563,
        -18.34066390991211,
        -97.10589599609375
      ],
      "type": "VEC3"
    },
    {
      "bufferView": 2,
      "byteOffset": 12588,
      "componentType": 5126,
      "count": 1049,
      "max": [
        1.0,
        1.0,
        1.0
      ],
      "min": [
        -1.0,
        -1.0,
        -1.0
      ],
      "type": "VEC3"
    },
    {
      "bufferView": 1,
      "componentType": 5126,
      "count": 1049,
      "max": [
        1.0,
        1.0
      ],
      "min": [
        0.0,
        -0.88671875
      ],
      "type": "VEC2"
    },
    {
      "bufferView": 1,
      "byteOffset": 8392,
      "componentType": 5126,
      "count": 1049,
      "max": [
        1.0,
        1.0
      ],
      "min": [
        0.0,
        -0.88671875
      ],
      "type": "VEC2"
    },
    {
      "bufferView": 0,
      "componentType": 5125,
      "count": 1458,
      "type": "SCALAR"
    }
  ],
  "asset": {
    "extras": {
      "author": "SAIRUS_creative (https://sketchfab.com/SAIRUS_creative)",
      "license": "CC-BY-4.0 (http://creativecommons.org/licenses/by/4.0/)",
      "source": "https://sketchfab.com/3d-models/wall-e-a9a9253831b949c0aeacb7939bed308b",
      "title": "Wall-E"
    },
    "generator": "Sketchfab-12.65.0",
    "version": "2.0"
  },
  "bufferViews": [
    {
      "buffer": 0,
      "byteLength": 5832,
      "name": "floatBufferViews",
      "target": 34963
    },
    {
      "buffer": 0,
      "byteLength": 16784,
      "byteOffset": 5832,
      "byteStride": 8,
      "name": "floatBufferViews",
      "target": 34962
    },
    {
      "buffer": 0,
      "byteLength": 25176,
      "byteOffset": 22616,
      "byteStride": 12,
      "name": "floatBufferViews",
      "target": 34962
    }
  ],
  "buffers": [
    {
      "byteLength": 47792,
      "uri": "scene.bin"
    }
  ],
  "images": [
    {
      "uri": "textures/Wall-E_baseColor.jpeg"
    },
    {
      "uri": "textures/Wall-E_metallicRoughness.png"
    }
  ],
  "materials": [
    {
      "doubleSided": true,
      "name": "Wall-E",
      "pbrMetallicRoughness": {
        "baseColorTexture": {
          "index": 0
        },
        "metallicFactor": 0.0,
        "metallicRoughnessTexture": {
          "index": 1
        }
      }
    }
  ],
  "meshes": [
    {
      "name": "Wall-E_Wall-E_0",
      "primitives": [
        {
          "attributes": {
            "NORMAL": 1,
            "POSITION": 0,
            "TEXCOORD_0": 2,
            "TEXCOORD_1": 3
          },
          "indices": 4,
          "material": 0,
          "mode": 4
        }
      ]
    }
  ],
  "nodes": [
    {
      "children": [
        1
      ],
      "matrix": [
        2.220446049250313e-16,
        -3.828568672208042e-16,
        1.0,
        0.0,
        -1.0,
        -2.8327693431939995e-16,
        2.2204460492503123e-16,
        0.0,
        2.832769343193999e-16,
        -1.0,
        -3.828568672208042e-16,
        0.0,
        1.992642879486084,
        -31.12883949279785,
        -1.9926424026489327,
        1.0
      ],
      "name": "Sketchfab_model"
    },
    {
      "children": [
        2
      ],
      "matrix": [
        1.0,
        0.0,
        0.0,
        0.0,
        0.0,
        0.0,
        1.0,
        0.0,
        0.0,
        -1.0,
        0.0,
        0.0,
        0.0,
        0.0,
        0.0,
        1.0
      ],
      "name": "30e0b1024d6d46f3a498182796e6ca03.fbx"
    },
    {
      "children": [
        3
      ],
      "name": "RootNode"
    },
    {
      "children": [
        4
      ],
      "matrix": [
        -1.0,
        -7.498798786105971e-33,
        1.224646799147353e-16,
        -0.0,
        -5.35310116766527e-24,
        -0.999999999999999,
        -4.371138828673792e-08,
        -0.0,
        -7.309090276635095e-17,
        2.6088377753263994e-08,
        -0.5968325138092035,
        -0.0,
        -0.17760848999023438,
        -0.5309181213378906,
        -2.17026686668396,
        1.0
      ],
      "name": "Wall-E"
    },
    {
      "children": [
        5
      ],
      "matrix": [
        1.0,
        0.0,
        -0.0,
        0.0,
        0.0,
        1.0,
        0.0,
        0.0,
        0.0,
        0.0,
        1.0,
        0.0,
        20.0000057220459,
        15.412784576416016,
        -2.3357467651367188,
        1.0
      ],
      "name": "Object_4"
    },
    {
      "mesh": 0,
      "name": "Wall-E_Wall-E_0"
    }
  ],
  "samplers": [
    {
      "magFilter": 9729,
      "minFilter": 9987,
      "wrapS": 10497,
      "wrapT": 10497
    }
  ],
  "scene": 0,
  "scenes": [
    {
      "name": "Sketchfab_Scene",
      "nodes": [
        0
      ]
    }
  ],
  "textures": [
    {
      "sampler": 0,
      "source": 0
    },
    {
      "sampler": 0,
      "source": 1
    }
  ]
}
